<svg width="28" height="31" viewBox="0 0 28 31" fill="none" xmlns="http://www.w3.org/2000/svg">
<path fill-rule="evenodd" clip-rule="evenodd" d="M3.56825 15.8362V10.7213C6.07401 12.0598 9.90359 12.8089 14.1638 12.8089C18.424 12.8089 22.2536 12.0598 24.7593 10.7213V15.8362C24.7593 17.1032 20.0651 18.8635 14.1638 18.8635C8.2625 18.8635 3.56825 17.1032 3.56825 15.8362ZM0.540955 15.8362V6.7543C0.540955 3.00547 6.68965 0.699707 14.1638 0.699707C21.638 0.699707 27.7866 3.00547 27.7866 6.7543V15.8362V24.9181C27.7866 28.6669 21.638 30.9727 14.1638 30.9727C6.68965 30.9727 0.540955 28.6669 0.540955 24.9181V15.8362ZM24.7593 19.8032V24.9181C24.7593 26.1851 20.0651 27.9454 14.1638 27.9454C8.2625 27.9454 3.56825 26.1851 3.56825 24.9181V19.8032C6.07401 21.1417 9.90359 21.8908 14.1638 21.8908C18.424 21.8908 22.2536 21.1417 24.7593 19.8032ZM14.1638 9.7816C20.0629 9.7816 24.7559 8.02256 24.7593 6.7557L24.7593 6.7543C24.7593 5.48735 20.0651 3.72701 14.1638 3.72701C8.2625 3.72701 3.56825 5.48735 3.56825 6.7543C3.56825 8.02126 8.2625 9.7816 14.1638 9.7816Z" fill="#353A85"/>
</svg>
